PathFileType	4	(X/Y/Z)	OpenSim_Sub06_EMGBaseline_Gyro.trc
DataRate	CameraRate	NumFrames	NumMarkers	Units	OrigDataRate	OrigDataStartFrame	OrigNumFrames
100	100	37	8	m	100	2068	8270
Frame#	Time	torso_imu_offset_imu	pelvis_imu_offset_imu	tibia_r_imu_offset_imu	femur_r_imu_offset_imu	tibia_l_imu_offset_imu	femur_l_imu_offset_imu	toes_r_imu_offset_imu	toes_l_imu_offset_imu
				X1	Y1	Z1	X2	Y2	Z2	X3	Y3	Z3	X4	Y4	Z4	X5	Y5	Z5	X6	Y6	Z6	X7	Y7	Z7	X8		Y8	Z8	

2068	20.67000000	-0.16970371	-0.14683633	-0.16732501	0.07943344	-0.17466581	0.15197395	2.50710372	-0.07068748	3.03612487	0.51374652	-0.00925519	-0.72914461	-0.19142751	0.17522529	0.84895833	-0.20362926	0.06789207	0.74523300	0.05658513	1.19453199	3.39928353	-0.18501775	-0.23308032	0.33509295
2069	20.68000000	-0.09696819	-0.12487867	-0.13374176	0.12422023	-0.19755205	0.14198850	1.10147077	-0.05094167	2.81557470	0.23963972	-0.17684266	-0.67526377	-0.22953228	0.19464275	0.89892482	-0.15297204	0.07321699	0.76988475	0.31379385	1.48809887	2.70721649	-0.22728338	-0.25082113	0.35097934
2070	20.69000000	-0.01399782	-0.07731247	-0.10156441	0.17233738	-0.21128407	0.14046383	0.10881893	0.26830915	2.65908392	0.00815307	-0.46630312	-0.57669320	-0.24689144	0.21017523	0.94874434	-0.10567918	0.06429857	0.80094214	0.28147507	1.68005183	2.05288704	-0.20349477	-0.30684129	0.37984543
2071	20.70000000	0.04855408	-0.02958645	-0.07065903	0.22470928	-0.21245511	0.13625482	-0.17096349	0.34913948	2.36479648	-0.04550770	-0.71877053	-0.44784899	-0.20931550	0.22743938	0.99898076	-0.10659895	0.04673325	0.83381206	0.06008072	1.70739425	1.40804134	-0.25844793	-0.35340519	0.38467290
2072	20.71000000	0.11093937	0.02122470	-0.05013886	0.25073612	-0.22054688	0.11795660	-0.36874813	-0.12783075	1.91630681	0.03718936	-0.85352579	-0.32855169	-0.13601333	0.24519302	1.07213861	-0.11743265	0.02297068	0.84712533	-0.48220399	1.50732742	0.77077525	-0.25529293	-0.42654895	0.39129802
2073	20.72000000	0.18315540	0.08161364	-0.03532545	0.26316772	-0.21638269	0.10967930	-0.76615959	-0.67519057	1.24908991	0.03748460	-0.87678733	-0.22698337	-0.04461295	0.26628370	1.15327963	-0.10738697	0.02834021	0.81750193	-1.33858830	1.08503555	0.12383473	-0.31899200	-0.51893220	0.40382453
2074	20.73000000	0.24964709	0.14764784	-0.02329355	0.24350190	-0.20728911	0.07836969	-1.45619729	-0.91818638	0.38099582	-0.16822732	-0.80782407	-0.09415430	0.03749860	0.30488802	1.24741083	-0.04551539	0.07985028	0.74611149	-2.03454452	0.62961951	-0.58242925	-0.28972475	-0.61063283	0.39665007
2075	20.74000000	0.30702863	0.20904604	-0.01482697	0.22099632	-0.19338737	0.02196469	-2.28113875	-0.94865337	-0.38159435	-0.47845667	-0.72927981	0.07790494	0.12265201	0.35189181	1.34836496	0.07733075	0.14597841	0.63365086	-1.69564759	-0.01241274	-1.52464868	-0.30281270	-0.73811289	0.40366729
2076	20.75000000	0.35336903	0.27709585	-0.01071862	0.21414595	-0.19297319	-0.02383457	-2.70363242	-0.86014657	-0.90784222	-0.75378745	-0.65516157	0.22701131	0.20387384	0.39113854	1.47357414	0.24667200	0.22472093	0.52422611	2.61959733	-1.33167649	-2.83088451	-0.29085534	-0.83105865	0.42515311
2077	20.76000000	0.36915001	0.32784711	-0.01530228	0.25951208	-0.18416602	-0.08821935	-2.69483565	-0.71713923	-1.30660851	-0.94839046	-0.55167109	0.31033212	0.24839456	0.38473338	1.62522254	0.41615133	0.31514536	0.41042241	2.45922832	-2.14563805	-2.62362672	-0.31525549	-0.98892764	0.45611971
2078	20.77000000	0.39639360	0.39648199	-0.04245208	0.32548040	-0.20249560	-0.14798396	-2.67907330	-0.81460045	-1.64359240	-0.99927873	-0.42830233	0.33783787	0.29146808	0.38833511	1.76771499	0.51939477	0.39486217	0.32012302	-1.08313253	-2.09939059	-0.33621884	-0.39686598	-1.14698265	0.51896440
2079	20.78000000	0.45745248	0.44390074	-0.04914456	0.36207708	-0.29038905	-0.17446354	-3.23473415	-1.26130372	-1.91094991	-0.99647718	-0.50676806	0.29306422	0.30799621	0.38611160	1.90038155	0.56779425	0.47630107	0.22020471	3.02048129	-0.58209802	-0.04001666	-0.32810446	-1.36006456	0.56498702
2080	20.79000000	0.49665358	0.41171032	-0.07340794	0.29672079	-0.47804895	-0.07438045	-3.88221094	-1.35163150	-1.90953776	-1.02085321	-0.96377779	0.13242763	0.20020287	0.40259293	2.01984275	0.53247577	0.53514078	0.06801470	1.27321793	1.34028938	-0.89626224	-0.36479269	-1.67762803	0.61782569
2081	20.80000000	0.49596387	0.31457936	-0.10665718	0.23553210	-0.56871057	0.22734857	-3.05932098	-0.61534869	-1.55303945	-0.87965054	-1.13919892	-0.27246128	0.04711938	0.38438226	2.14556534	0.41456081	0.57174371	-0.14788425	-1.43602229	0.08232384	-0.89830533	-0.38300343	-2.06675204	0.71326224
2082	20.81000000	0.42207366	0.23411360	-0.09634886	0.23914290	-0.38813512	0.58846441	0.30500783	0.28966719	-1.26557954	-0.31711915	-0.16153286	-0.48095168	-0.04105074	0.28987264	2.25602219	0.21445073	0.58000377	-0.40976964	0.74419017	0.64648950	0.05363755	-0.53277074	-2.48977411	0.88188407
2083	20.82000000	0.32552497	0.21108596	-0.01395543	-0.08513034	-0.07809701	0.71553199	3.37770249	1.03465804	-1.54611335	0.00745646	0.79244801	-0.04024208	-0.10088452	0.13461824	2.33887076	-0.01076872	0.58792337	-0.64375350	0.00294813	-0.12426158	-0.05353942	-0.46534909	-2.98359561	1.09235400
2084	20.83000000	0.23703485	0.22495060	-0.00016555	-0.67429973	0.09051859	0.43567610	4.30271422	1.02503380	-1.64010261	-0.48486978	0.63032012	0.37296396	-0.18808154	-0.10607743	2.44395397	-0.23336353	0.61915176	-0.92655935	-0.21662847	-0.24232531	0.26186886	-0.70905102	-3.52218799	1.35945615
2085	20.84000000	0.26204743	0.21634388	-0.13311092	-0.94290341	0.22253178	0.07489123	4.27466071	0.68846858	-1.45902451	-1.02925940	0.04558108	0.52150852	-0.15349533	-0.36483368	2.58510808	-0.44413932	0.74732651	-1.31147574	-0.39453749	-0.31983081	0.33778154	-0.86933822	-4.04249353	1.54878673
2086	20.85000000	0.33419169	0.23047629	-0.19265410	-0.78894475	0.31902242	-0.18459581	4.13552374	0.05624116	-1.46104991	-0.81774693	-0.27270275	0.54148564	0.13795572	-0.50083607	2.70859802	-0.52248102	0.97799283	-1.72526354	-0.32375981	-0.30710059	0.41268820	-0.86368947	-4.63643070	1.64795984
2087	20.86000000	0.44607214	0.19111534	-0.22422784	-0.43488856	0.29766503	-0.26073920	3.32262313	-0.54897735	-1.41940342	-0.35222903	-0.24808515	0.16518942	0.62434812	-0.36980392	2.74355715	-0.51784561	1.22892865	-2.06931158	-0.33871155	-0.22539587	0.34221828	-0.86720706	-5.17170942	1.76686212
2088	20.87000000	0.57399563	0.14969683	-0.20774797	-0.01511678	0.18357561	-0.30197838	1.91751530	-0.88625898	-1.26329892	-0.18297433	-0.14141687	-0.49535465	1.02308483	-0.00874675	2.75779760	-0.55146935	1.42389637	-2.31059667	-0.25449298	-0.17012892	0.18875693	-0.70056440	-5.49751231	1.87872725
2089	20.88000000	0.69953017	0.10009682	-0.16755411	0.31365350	0.08074108	-0.27973702	0.46768379	-0.72549550	-0.93064905	-0.41574326	-0.12717595	-0.96874963	1.07600246	0.27485698	2.80225214	-0.61770742	1.50112713	-2.41280834	-0.12194587	-0.04884981	0.01824904	-0.53022737	-5.66375286	1.99842658
2090	20.89000000	0.80856701	0.05662780	-0.11820947	0.55747499	0.05334048	-0.15725007	-0.43566135	-0.41919350	-0.42111674	-0.91524438	-0.29773233	-1.19485619	0.93005177	0.25219849	2.79299593	-0.70304175	1.43911939	-2.34207589	-0.09406921	0.10513398	-0.11162012	0.28953874	-5.88127997	2.11737829
2091	20.90000000	0.93476129	0.01092943	-0.06952148	0.71605471	0.07899567	-0.01588590	-0.97797194	-0.42621125	-0.17636191	-1.16402923	-0.70596790	-1.28111403	0.96624578	-0.00926938	2.64127348	-0.70362983	1.33859425	-2.16700606	-0.00119564	0.14374949	-0.21802295	0.39493937	-5.88924415	2.32044355
2092	20.91000000	0.98930783	-0.03680173	-0.05264463	0.81036393	0.11428912	0.14179162	-1.51601297	-0.53099564	-0.20512863	-0.89600187	-1.02279156	-1.32562264	1.27367927	-0.28064111	2.35609047	-0.41617226	1.23128192	-1.99011983	0.02979113	0.15348628	-0.23941070	0.14440892	-5.80331931	2.56669423
2093	20.92000000	0.98496725	-0.06149970	-0.05238914	0.91385403	0.10047692	0.28755657	-1.90193620	-0.50298987	-0.33963800	-0.24873512	-1.00591024	-1.26375330	1.69673497	-0.41151158	1.96128273	0.01801290	1.08337414	-1.87540068	0.01637207	0.10390513	-0.19157554	0.31979934	-5.23489587	2.54908613
2094	20.93000000	0.95581811	-0.06118211	-0.02769510	0.99301900	0.02426347	0.41513995	-1.93376216	-0.38338256	-0.59643326	0.50559308	-0.74495364	-1.23224168	1.77152689	-0.37482840	1.45066726	0.46791076	0.94273817	-1.81396863	0.01629366	0.01322706	-0.14117329	0.81953511	-4.28886606	2.26994878
2095	20.94000000	0.91270598	-0.05548606	0.00568484	0.97793938	-0.02461822	0.48387901	-1.32191161	-0.27805227	-0.87461270	0.95787185	-0.67687541	-1.19121846	1.51363408	-0.12428287	0.91912579	0.91130594	0.86726635	-1.90234070	-0.06121401	-0.03500501	-0.08532588	0.59632583	-3.31244416	2.31692679
2096	20.95000000	0.87389661	-0.04622502	0.05654176	0.81139662	-0.00632409	0.49624146	-0.44062736	-0.17755783	-0.93295690	1.07105358	-0.78795175	-1.10279752	1.22798020	0.22629480	0.54318146	1.34121324	0.82528909	-2.06333715	-0.06975033	-0.09792397	-0.05576962	0.54672759	-0.98970071	1.79366290
2097	20.96000000	0.82972167	-0.05897005	0.13098843	0.52767822	0.05987923	0.41022581	0.42055851	-0.13909720	-0.73156581	1.11767519	-0.74730181	-1.01538450	1.08153168	0.38866990	0.38951191	1.71015685	0.77948208	-2.11530147	-0.09486333	-0.15306156	-0.02932592	0.84797354	3.56593438	0.28659207
2098	20.97000000	0.77859313	-0.08016815	0.23312262	0.30383263	0.10153522	0.25142823	1.14810322	-0.18496197	-0.37854725	1.09823835	-0.51179549	-0.89373470	1.16950030	0.26633431	0.35278037	1.81125021	0.66332262	-2.10337537	-0.08359091	-0.20142262	-0.03485432	0.74615297	3.22490832	0.18377892
2099	20.98000000	0.83112129	-0.09196628	0.32953743	0.23183587	0.16041687	0.04582896	1.63345728	-0.22572425	-0.17207350	0.90828051	-0.28023129	-0.80820490	1.47053217	-0.13535820	0.17290056	1.69687406	0.47713454	-2.07934702	-0.08964603	-0.23251784	-0.04019039	-0.07702717	2.23225150	0.39912446
2100	20.99000000	0.91514699	-0.06466178	0.34488129	0.28666860	0.23210567	-0.11553598	1.80172236	-0.23465760	-0.22943947	0.59395478	-0.21627141	-0.77159553	1.87928101	-0.51874928	-0.26104380	1.56374050	0.33679318	-2.03491436	-0.05113977	-0.25530672	-0.07216451	-0.38835471	1.90350424	0.21632791
2101	21	0.95747968	-0.04749005	0.31097805	0.38606934	0.26473099	-0.21357950	1.67406313	-0.20649099	-0.31785938	0.21532994	-0.29676674	-0.74182470	2.10759685	-0.70977877	-0.87023086	1.42132451	0.26210212	-1.94889094	-0.04432055	-0.28833626	-0.11087713	0.21920396	2.12449390	-0.27309429
2102	21.01000000	1.02235795	-0.05882619	0.24992046	0.45180006	0.27529775	-0.29484434	1.32107303	-0.16807449	-0.36383868	-0.21365275	-0.43069183	-0.70629847	1.91663634	-0.70568386	-1.48276696	1.13318426	0.19976354	-1.83259709	-0.03641116	-0.29295711	-0.13010283	0.37172083	2.62635113	-0.78584801
2103	21.02000000	1.06277409	-0.06643306	0.19571432	0.46470843	0.25657545	-0.34392001	0.82985113	-0.15483172	-0.42845733	-0.60286913	-0.52267476	-0.67775383	1.37070898	-0.54348569	-1.97293054	0.77842103	0.10882285	-1.66702806	-0.01543535	-0.33682584	-0.15915061	0.69427238	3.10929630	-1.14587928
2104	21.03000000	1.07807830	-0.04868508	0.18714584	0.45926809	0.22448555	-0.36158955	0.32567262	-0.14316501	-0.52125399	-0.84178013	-0.56892601	-0.67417921	0.55953264	-0.32125646	-2.27885954	0.44768752	0.00447408	-1.49540365	-0.04529521	-0.34577777	-0.16040474	0.69435194	3.39704951	-1.23696087
